<mxfile host="app.diagrams.net" modified="2024-01-25T18:27:21.412Z" agent="Mozilla/5.0 (Macintosh; Intel Mac OS X 10_15_7) AppleWebKit/605.1.15 (KHTML, like Gecko) Version/17.2.1 Safari/605.1.15" etag="_cg5kqa6ZIKuUrdEovxb" version="22.1.21" type="github">
  <diagram name="Page-1" id="-btVDJnAOsb9r5y344Yb">
    <mxGraphModel dx="2034" dy="1367" grid="1" gridSize="10" guides="1" tooltips="1" connect="1" arrows="1" fold="1" page="1" pageScale="1" pageWidth="827" pageHeight="1169" math="0" shadow="0">
      <root>
        <mxCell id="0" />
        <mxCell id="1" parent="0" />
        <mxCell id="vdO3cK1JsAac6ZCJuxiq-1" value="User" style="swimlane;fontStyle=0;childLayout=stackLayout;horizontal=1;startSize=30;horizontalStack=0;resizeParent=1;resizeParentMax=0;resizeLast=0;collapsible=1;marginBottom=0;whiteSpace=wrap;html=1;" vertex="1" parent="1">
          <mxGeometry x="480" y="80" width="140" height="330" as="geometry" />
        </mxCell>
        <mxCell id="vdO3cK1JsAac6ZCJuxiq-2" value="id" style="text;strokeColor=none;fillColor=none;align=left;verticalAlign=middle;spacingLeft=4;spacingRight=4;overflow=hidden;points=[[0,0.5],[1,0.5]];portConstraint=eastwest;rotatable=0;whiteSpace=wrap;html=1;" vertex="1" parent="vdO3cK1JsAac6ZCJuxiq-1">
          <mxGeometry y="30" width="140" height="30" as="geometry" />
        </mxCell>
        <mxCell id="vdO3cK1JsAac6ZCJuxiq-3" value="name" style="text;strokeColor=none;fillColor=none;align=left;verticalAlign=middle;spacingLeft=4;spacingRight=4;overflow=hidden;points=[[0,0.5],[1,0.5]];portConstraint=eastwest;rotatable=0;whiteSpace=wrap;html=1;" vertex="1" parent="vdO3cK1JsAac6ZCJuxiq-1">
          <mxGeometry y="60" width="140" height="30" as="geometry" />
        </mxCell>
        <mxCell id="vdO3cK1JsAac6ZCJuxiq-5" value="email" style="text;strokeColor=none;fillColor=none;align=left;verticalAlign=middle;spacingLeft=4;spacingRight=4;overflow=hidden;points=[[0,0.5],[1,0.5]];portConstraint=eastwest;rotatable=0;whiteSpace=wrap;html=1;" vertex="1" parent="vdO3cK1JsAac6ZCJuxiq-1">
          <mxGeometry y="90" width="140" height="30" as="geometry" />
        </mxCell>
        <mxCell id="vdO3cK1JsAac6ZCJuxiq-4" value="email_verified_at" style="text;strokeColor=none;fillColor=none;align=left;verticalAlign=middle;spacingLeft=4;spacingRight=4;overflow=hidden;points=[[0,0.5],[1,0.5]];portConstraint=eastwest;rotatable=0;whiteSpace=wrap;html=1;" vertex="1" parent="vdO3cK1JsAac6ZCJuxiq-1">
          <mxGeometry y="120" width="140" height="30" as="geometry" />
        </mxCell>
        <mxCell id="vdO3cK1JsAac6ZCJuxiq-11" value="password" style="text;strokeColor=none;fillColor=none;align=left;verticalAlign=middle;spacingLeft=4;spacingRight=4;overflow=hidden;points=[[0,0.5],[1,0.5]];portConstraint=eastwest;rotatable=0;whiteSpace=wrap;html=1;" vertex="1" parent="vdO3cK1JsAac6ZCJuxiq-1">
          <mxGeometry y="150" width="140" height="30" as="geometry" />
        </mxCell>
        <mxCell id="vdO3cK1JsAac6ZCJuxiq-12" value="api_token" style="text;strokeColor=none;fillColor=none;align=left;verticalAlign=middle;spacingLeft=4;spacingRight=4;overflow=hidden;points=[[0,0.5],[1,0.5]];portConstraint=eastwest;rotatable=0;whiteSpace=wrap;html=1;" vertex="1" parent="vdO3cK1JsAac6ZCJuxiq-1">
          <mxGeometry y="180" width="140" height="30" as="geometry" />
        </mxCell>
        <mxCell id="vdO3cK1JsAac6ZCJuxiq-13" value="notification_email" style="text;strokeColor=none;fillColor=none;align=left;verticalAlign=middle;spacingLeft=4;spacingRight=4;overflow=hidden;points=[[0,0.5],[1,0.5]];portConstraint=eastwest;rotatable=0;whiteSpace=wrap;html=1;" vertex="1" parent="vdO3cK1JsAac6ZCJuxiq-1">
          <mxGeometry y="210" width="140" height="30" as="geometry" />
        </mxCell>
        <mxCell id="vdO3cK1JsAac6ZCJuxiq-14" value="user_type" style="text;strokeColor=none;fillColor=none;align=left;verticalAlign=middle;spacingLeft=4;spacingRight=4;overflow=hidden;points=[[0,0.5],[1,0.5]];portConstraint=eastwest;rotatable=0;whiteSpace=wrap;html=1;" vertex="1" parent="vdO3cK1JsAac6ZCJuxiq-1">
          <mxGeometry y="240" width="140" height="30" as="geometry" />
        </mxCell>
        <mxCell id="vdO3cK1JsAac6ZCJuxiq-10" value="rated_app_at" style="text;strokeColor=none;fillColor=none;align=left;verticalAlign=middle;spacingLeft=4;spacingRight=4;overflow=hidden;points=[[0,0.5],[1,0.5]];portConstraint=eastwest;rotatable=0;whiteSpace=wrap;html=1;" vertex="1" parent="vdO3cK1JsAac6ZCJuxiq-1">
          <mxGeometry y="270" width="140" height="30" as="geometry" />
        </mxCell>
        <mxCell id="vdO3cK1JsAac6ZCJuxiq-8" value="last_login_at" style="text;strokeColor=none;fillColor=none;align=left;verticalAlign=middle;spacingLeft=4;spacingRight=4;overflow=hidden;points=[[0,0.5],[1,0.5]];portConstraint=eastwest;rotatable=0;whiteSpace=wrap;html=1;" vertex="1" parent="vdO3cK1JsAac6ZCJuxiq-1">
          <mxGeometry y="300" width="140" height="30" as="geometry" />
        </mxCell>
        <mxCell id="vdO3cK1JsAac6ZCJuxiq-118" style="edgeStyle=orthogonalEdgeStyle;rounded=0;orthogonalLoop=1;jettySize=auto;html=1;" edge="1" parent="1" source="vdO3cK1JsAac6ZCJuxiq-16" target="vdO3cK1JsAac6ZCJuxiq-1">
          <mxGeometry relative="1" as="geometry">
            <Array as="points">
              <mxPoint x="335" y="460" />
              <mxPoint x="335" y="275" />
            </Array>
          </mxGeometry>
        </mxCell>
        <mxCell id="vdO3cK1JsAac6ZCJuxiq-124" value="user_id:id" style="edgeLabel;html=1;align=center;verticalAlign=middle;resizable=0;points=[];" vertex="1" connectable="0" parent="vdO3cK1JsAac6ZCJuxiq-118">
          <mxGeometry x="0.2929" y="2" relative="1" as="geometry">
            <mxPoint as="offset" />
          </mxGeometry>
        </mxCell>
        <mxCell id="vdO3cK1JsAac6ZCJuxiq-16" value="Customer" style="swimlane;fontStyle=0;childLayout=stackLayout;horizontal=1;startSize=30;horizontalStack=0;resizeParent=1;resizeParentMax=0;resizeLast=0;collapsible=1;marginBottom=0;whiteSpace=wrap;html=1;" vertex="1" parent="1">
          <mxGeometry x="650" y="170" width="140" height="630" as="geometry" />
        </mxCell>
        <mxCell id="vdO3cK1JsAac6ZCJuxiq-17" value="first_name" style="text;strokeColor=none;fillColor=none;align=left;verticalAlign=middle;spacingLeft=4;spacingRight=4;overflow=hidden;points=[[0,0.5],[1,0.5]];portConstraint=eastwest;rotatable=0;whiteSpace=wrap;html=1;" vertex="1" parent="vdO3cK1JsAac6ZCJuxiq-16">
          <mxGeometry y="30" width="140" height="30" as="geometry" />
        </mxCell>
        <mxCell id="vdO3cK1JsAac6ZCJuxiq-18" value="last_name" style="text;strokeColor=none;fillColor=none;align=left;verticalAlign=middle;spacingLeft=4;spacingRight=4;overflow=hidden;points=[[0,0.5],[1,0.5]];portConstraint=eastwest;rotatable=0;whiteSpace=wrap;html=1;" vertex="1" parent="vdO3cK1JsAac6ZCJuxiq-16">
          <mxGeometry y="60" width="140" height="30" as="geometry" />
        </mxCell>
        <mxCell id="vdO3cK1JsAac6ZCJuxiq-20" value="birsth_date" style="text;strokeColor=none;fillColor=none;align=left;verticalAlign=middle;spacingLeft=4;spacingRight=4;overflow=hidden;points=[[0,0.5],[1,0.5]];portConstraint=eastwest;rotatable=0;whiteSpace=wrap;html=1;" vertex="1" parent="vdO3cK1JsAac6ZCJuxiq-16">
          <mxGeometry y="90" width="140" height="30" as="geometry" />
        </mxCell>
        <mxCell id="vdO3cK1JsAac6ZCJuxiq-72" value="picture" style="text;strokeColor=none;fillColor=none;align=left;verticalAlign=middle;spacingLeft=4;spacingRight=4;overflow=hidden;points=[[0,0.5],[1,0.5]];portConstraint=eastwest;rotatable=0;whiteSpace=wrap;html=1;" vertex="1" parent="vdO3cK1JsAac6ZCJuxiq-16">
          <mxGeometry y="120" width="140" height="30" as="geometry" />
        </mxCell>
        <mxCell id="vdO3cK1JsAac6ZCJuxiq-25" value="phone" style="text;strokeColor=none;fillColor=none;align=left;verticalAlign=middle;spacingLeft=4;spacingRight=4;overflow=hidden;points=[[0,0.5],[1,0.5]];portConstraint=eastwest;rotatable=0;whiteSpace=wrap;html=1;" vertex="1" parent="vdO3cK1JsAac6ZCJuxiq-16">
          <mxGeometry y="150" width="140" height="30" as="geometry" />
        </mxCell>
        <mxCell id="vdO3cK1JsAac6ZCJuxiq-24" value="objectif&amp;nbsp;" style="text;strokeColor=none;fillColor=none;align=left;verticalAlign=middle;spacingLeft=4;spacingRight=4;overflow=hidden;points=[[0,0.5],[1,0.5]];portConstraint=eastwest;rotatable=0;whiteSpace=wrap;html=1;" vertex="1" parent="vdO3cK1JsAac6ZCJuxiq-16">
          <mxGeometry y="180" width="140" height="30" as="geometry" />
        </mxCell>
        <mxCell id="vdO3cK1JsAac6ZCJuxiq-23" value="weight" style="text;strokeColor=none;fillColor=none;align=left;verticalAlign=middle;spacingLeft=4;spacingRight=4;overflow=hidden;points=[[0,0.5],[1,0.5]];portConstraint=eastwest;rotatable=0;whiteSpace=wrap;html=1;" vertex="1" parent="vdO3cK1JsAac6ZCJuxiq-16">
          <mxGeometry y="210" width="140" height="30" as="geometry" />
        </mxCell>
        <mxCell id="vdO3cK1JsAac6ZCJuxiq-22" value="height" style="text;strokeColor=none;fillColor=none;align=left;verticalAlign=middle;spacingLeft=4;spacingRight=4;overflow=hidden;points=[[0,0.5],[1,0.5]];portConstraint=eastwest;rotatable=0;whiteSpace=wrap;html=1;" vertex="1" parent="vdO3cK1JsAac6ZCJuxiq-16">
          <mxGeometry y="240" width="140" height="30" as="geometry" />
        </mxCell>
        <mxCell id="vdO3cK1JsAac6ZCJuxiq-19" value="gender" style="text;strokeColor=none;fillColor=none;align=left;verticalAlign=middle;spacingLeft=4;spacingRight=4;overflow=hidden;points=[[0,0.5],[1,0.5]];portConstraint=eastwest;rotatable=0;whiteSpace=wrap;html=1;" vertex="1" parent="vdO3cK1JsAac6ZCJuxiq-16">
          <mxGeometry y="270" width="140" height="30" as="geometry" />
        </mxCell>
        <mxCell id="vdO3cK1JsAac6ZCJuxiq-76" value="fit_track" style="text;strokeColor=none;fillColor=none;align=left;verticalAlign=middle;spacingLeft=4;spacingRight=4;overflow=hidden;points=[[0,0.5],[1,0.5]];portConstraint=eastwest;rotatable=0;whiteSpace=wrap;html=1;" vertex="1" parent="vdO3cK1JsAac6ZCJuxiq-16">
          <mxGeometry y="300" width="140" height="30" as="geometry" />
        </mxCell>
        <mxCell id="vdO3cK1JsAac6ZCJuxiq-75" value="muscles" style="text;strokeColor=none;fillColor=none;align=left;verticalAlign=middle;spacingLeft=4;spacingRight=4;overflow=hidden;points=[[0,0.5],[1,0.5]];portConstraint=eastwest;rotatable=0;whiteSpace=wrap;html=1;" vertex="1" parent="vdO3cK1JsAac6ZCJuxiq-16">
          <mxGeometry y="330" width="140" height="30" as="geometry" />
        </mxCell>
        <mxCell id="vdO3cK1JsAac6ZCJuxiq-26" value="fat" style="text;strokeColor=none;fillColor=none;align=left;verticalAlign=middle;spacingLeft=4;spacingRight=4;overflow=hidden;points=[[0,0.5],[1,0.5]];portConstraint=eastwest;rotatable=0;whiteSpace=wrap;html=1;" vertex="1" parent="vdO3cK1JsAac6ZCJuxiq-16">
          <mxGeometry y="360" width="140" height="30" as="geometry" />
        </mxCell>
        <mxCell id="vdO3cK1JsAac6ZCJuxiq-7" value="notification_recieps" style="text;strokeColor=none;fillColor=none;align=left;verticalAlign=middle;spacingLeft=4;spacingRight=4;overflow=hidden;points=[[0,0.5],[1,0.5]];portConstraint=eastwest;rotatable=0;whiteSpace=wrap;html=1;" vertex="1" parent="vdO3cK1JsAac6ZCJuxiq-16">
          <mxGeometry y="390" width="140" height="30" as="geometry" />
        </mxCell>
        <mxCell id="vdO3cK1JsAac6ZCJuxiq-6" value="notification_xercises" style="text;strokeColor=none;fillColor=none;align=left;verticalAlign=middle;spacingLeft=4;spacingRight=4;overflow=hidden;points=[[0,0.5],[1,0.5]];portConstraint=eastwest;rotatable=0;whiteSpace=wrap;html=1;" vertex="1" parent="vdO3cK1JsAac6ZCJuxiq-16">
          <mxGeometry y="420" width="140" height="30" as="geometry" />
        </mxCell>
        <mxCell id="vdO3cK1JsAac6ZCJuxiq-98" value="notification_advise" style="text;strokeColor=none;fillColor=none;align=left;verticalAlign=middle;spacingLeft=4;spacingRight=4;overflow=hidden;points=[[0,0.5],[1,0.5]];portConstraint=eastwest;rotatable=0;whiteSpace=wrap;html=1;" vertex="1" parent="vdO3cK1JsAac6ZCJuxiq-16">
          <mxGeometry y="450" width="140" height="30" as="geometry" />
        </mxCell>
        <mxCell id="vdO3cK1JsAac6ZCJuxiq-101" value="notification_pro" style="text;strokeColor=none;fillColor=none;align=left;verticalAlign=middle;spacingLeft=4;spacingRight=4;overflow=hidden;points=[[0,0.5],[1,0.5]];portConstraint=eastwest;rotatable=0;whiteSpace=wrap;html=1;" vertex="1" parent="vdO3cK1JsAac6ZCJuxiq-16">
          <mxGeometry y="480" width="140" height="30" as="geometry" />
        </mxCell>
        <mxCell id="vdO3cK1JsAac6ZCJuxiq-73" value="birsth_date" style="text;strokeColor=none;fillColor=none;align=left;verticalAlign=middle;spacingLeft=4;spacingRight=4;overflow=hidden;points=[[0,0.5],[1,0.5]];portConstraint=eastwest;rotatable=0;whiteSpace=wrap;html=1;" vertex="1" parent="vdO3cK1JsAac6ZCJuxiq-16">
          <mxGeometry y="510" width="140" height="30" as="geometry" />
        </mxCell>
        <mxCell id="vdO3cK1JsAac6ZCJuxiq-74" value="birsth_date" style="text;strokeColor=none;fillColor=none;align=left;verticalAlign=middle;spacingLeft=4;spacingRight=4;overflow=hidden;points=[[0,0.5],[1,0.5]];portConstraint=eastwest;rotatable=0;whiteSpace=wrap;html=1;" vertex="1" parent="vdO3cK1JsAac6ZCJuxiq-16">
          <mxGeometry y="540" width="140" height="30" as="geometry" />
        </mxCell>
        <mxCell id="vdO3cK1JsAac6ZCJuxiq-71" value="user_id" style="text;strokeColor=none;fillColor=none;align=left;verticalAlign=middle;spacingLeft=4;spacingRight=4;overflow=hidden;points=[[0,0.5],[1,0.5]];portConstraint=eastwest;rotatable=0;whiteSpace=wrap;html=1;" vertex="1" parent="vdO3cK1JsAac6ZCJuxiq-16">
          <mxGeometry y="570" width="140" height="30" as="geometry" />
        </mxCell>
        <mxCell id="vdO3cK1JsAac6ZCJuxiq-21" value="sponsoship_code" style="text;strokeColor=none;fillColor=none;align=left;verticalAlign=middle;spacingLeft=4;spacingRight=4;overflow=hidden;points=[[0,0.5],[1,0.5]];portConstraint=eastwest;rotatable=0;whiteSpace=wrap;html=1;" vertex="1" parent="vdO3cK1JsAac6ZCJuxiq-16">
          <mxGeometry y="600" width="140" height="30" as="geometry" />
        </mxCell>
        <mxCell id="vdO3cK1JsAac6ZCJuxiq-117" style="edgeStyle=orthogonalEdgeStyle;rounded=0;orthogonalLoop=1;jettySize=auto;html=1;entryX=1.007;entryY=0.052;entryDx=0;entryDy=0;entryPerimeter=0;" edge="1" parent="1" source="vdO3cK1JsAac6ZCJuxiq-80" target="vdO3cK1JsAac6ZCJuxiq-1">
          <mxGeometry relative="1" as="geometry">
            <Array as="points">
              <mxPoint x="660" y="127" />
            </Array>
          </mxGeometry>
        </mxCell>
        <mxCell id="vdO3cK1JsAac6ZCJuxiq-123" value="user_id:id" style="edgeLabel;html=1;align=center;verticalAlign=middle;resizable=0;points=[];" vertex="1" connectable="0" parent="vdO3cK1JsAac6ZCJuxiq-117">
          <mxGeometry x="0.3219" y="3" relative="1" as="geometry">
            <mxPoint as="offset" />
          </mxGeometry>
        </mxCell>
        <mxCell id="vdO3cK1JsAac6ZCJuxiq-80" value="Professional" style="swimlane;fontStyle=0;childLayout=stackLayout;horizontal=1;startSize=30;horizontalStack=0;resizeParent=1;resizeParentMax=0;resizeLast=0;collapsible=1;marginBottom=0;whiteSpace=wrap;html=1;" vertex="1" parent="1">
          <mxGeometry x="870" y="190" width="140" height="300" as="geometry" />
        </mxCell>
        <mxCell id="vdO3cK1JsAac6ZCJuxiq-81" value="first_name" style="text;strokeColor=none;fillColor=none;align=left;verticalAlign=middle;spacingLeft=4;spacingRight=4;overflow=hidden;points=[[0,0.5],[1,0.5]];portConstraint=eastwest;rotatable=0;whiteSpace=wrap;html=1;" vertex="1" parent="vdO3cK1JsAac6ZCJuxiq-80">
          <mxGeometry y="30" width="140" height="30" as="geometry" />
        </mxCell>
        <mxCell id="vdO3cK1JsAac6ZCJuxiq-82" value="last_name" style="text;strokeColor=none;fillColor=none;align=left;verticalAlign=middle;spacingLeft=4;spacingRight=4;overflow=hidden;points=[[0,0.5],[1,0.5]];portConstraint=eastwest;rotatable=0;whiteSpace=wrap;html=1;" vertex="1" parent="vdO3cK1JsAac6ZCJuxiq-80">
          <mxGeometry y="60" width="140" height="30" as="geometry" />
        </mxCell>
        <mxCell id="vdO3cK1JsAac6ZCJuxiq-83" value="birsth_date" style="text;strokeColor=none;fillColor=none;align=left;verticalAlign=middle;spacingLeft=4;spacingRight=4;overflow=hidden;points=[[0,0.5],[1,0.5]];portConstraint=eastwest;rotatable=0;whiteSpace=wrap;html=1;" vertex="1" parent="vdO3cK1JsAac6ZCJuxiq-80">
          <mxGeometry y="90" width="140" height="30" as="geometry" />
        </mxCell>
        <mxCell id="vdO3cK1JsAac6ZCJuxiq-84" value="picture" style="text;strokeColor=none;fillColor=none;align=left;verticalAlign=middle;spacingLeft=4;spacingRight=4;overflow=hidden;points=[[0,0.5],[1,0.5]];portConstraint=eastwest;rotatable=0;whiteSpace=wrap;html=1;" vertex="1" parent="vdO3cK1JsAac6ZCJuxiq-80">
          <mxGeometry y="120" width="140" height="30" as="geometry" />
        </mxCell>
        <mxCell id="vdO3cK1JsAac6ZCJuxiq-85" value="phone" style="text;strokeColor=none;fillColor=none;align=left;verticalAlign=middle;spacingLeft=4;spacingRight=4;overflow=hidden;points=[[0,0.5],[1,0.5]];portConstraint=eastwest;rotatable=0;whiteSpace=wrap;html=1;" vertex="1" parent="vdO3cK1JsAac6ZCJuxiq-80">
          <mxGeometry y="150" width="140" height="30" as="geometry" />
        </mxCell>
        <mxCell id="vdO3cK1JsAac6ZCJuxiq-86" value="profession" style="text;strokeColor=none;fillColor=none;align=left;verticalAlign=middle;spacingLeft=4;spacingRight=4;overflow=hidden;points=[[0,0.5],[1,0.5]];portConstraint=eastwest;rotatable=0;whiteSpace=wrap;html=1;" vertex="1" parent="vdO3cK1JsAac6ZCJuxiq-80">
          <mxGeometry y="180" width="140" height="30" as="geometry" />
        </mxCell>
        <mxCell id="vdO3cK1JsAac6ZCJuxiq-87" value="is_verified" style="text;strokeColor=none;fillColor=none;align=left;verticalAlign=middle;spacingLeft=4;spacingRight=4;overflow=hidden;points=[[0,0.5],[1,0.5]];portConstraint=eastwest;rotatable=0;whiteSpace=wrap;html=1;" vertex="1" parent="vdO3cK1JsAac6ZCJuxiq-80">
          <mxGeometry y="210" width="140" height="30" as="geometry" />
        </mxCell>
        <mxCell id="vdO3cK1JsAac6ZCJuxiq-100" value="notification_client" style="text;strokeColor=none;fillColor=none;align=left;verticalAlign=middle;spacingLeft=4;spacingRight=4;overflow=hidden;points=[[0,0.5],[1,0.5]];portConstraint=eastwest;rotatable=0;whiteSpace=wrap;html=1;" vertex="1" parent="vdO3cK1JsAac6ZCJuxiq-80">
          <mxGeometry y="240" width="140" height="30" as="geometry" />
        </mxCell>
        <mxCell id="vdO3cK1JsAac6ZCJuxiq-96" value="sponsoship_code" style="text;strokeColor=none;fillColor=none;align=left;verticalAlign=middle;spacingLeft=4;spacingRight=4;overflow=hidden;points=[[0,0.5],[1,0.5]];portConstraint=eastwest;rotatable=0;whiteSpace=wrap;html=1;" vertex="1" parent="vdO3cK1JsAac6ZCJuxiq-80">
          <mxGeometry y="270" width="140" height="30" as="geometry" />
        </mxCell>
        <mxCell id="vdO3cK1JsAac6ZCJuxiq-115" style="edgeStyle=orthogonalEdgeStyle;rounded=0;orthogonalLoop=1;jettySize=auto;html=1;startArrow=classic;startFill=1;" edge="1" parent="1" source="vdO3cK1JsAac6ZCJuxiq-102" target="vdO3cK1JsAac6ZCJuxiq-80">
          <mxGeometry relative="1" as="geometry" />
        </mxCell>
        <mxCell id="vdO3cK1JsAac6ZCJuxiq-126" value="professional_id:id" style="edgeLabel;html=1;align=center;verticalAlign=middle;resizable=0;points=[];" vertex="1" connectable="0" parent="vdO3cK1JsAac6ZCJuxiq-115">
          <mxGeometry x="-0.1667" y="-1" relative="1" as="geometry">
            <mxPoint as="offset" />
          </mxGeometry>
        </mxCell>
        <mxCell id="vdO3cK1JsAac6ZCJuxiq-116" style="edgeStyle=orthogonalEdgeStyle;rounded=0;orthogonalLoop=1;jettySize=auto;html=1;startArrow=classic;startFill=1;" edge="1" parent="1" source="vdO3cK1JsAac6ZCJuxiq-102" target="vdO3cK1JsAac6ZCJuxiq-16">
          <mxGeometry relative="1" as="geometry" />
        </mxCell>
        <mxCell id="vdO3cK1JsAac6ZCJuxiq-125" value="customer_id:id" style="edgeLabel;html=1;align=center;verticalAlign=middle;resizable=0;points=[];" vertex="1" connectable="0" parent="vdO3cK1JsAac6ZCJuxiq-116">
          <mxGeometry x="0.2432" y="3" relative="1" as="geometry">
            <mxPoint as="offset" />
          </mxGeometry>
        </mxCell>
        <mxCell id="vdO3cK1JsAac6ZCJuxiq-102" value="CustomerProfessionalRelation" style="swimlane;fontStyle=0;childLayout=stackLayout;horizontal=1;startSize=30;horizontalStack=0;resizeParent=1;resizeParentMax=0;resizeLast=0;collapsible=1;marginBottom=0;whiteSpace=wrap;html=1;" vertex="1" parent="1">
          <mxGeometry x="880" y="550" width="180" height="120" as="geometry" />
        </mxCell>
        <mxCell id="vdO3cK1JsAac6ZCJuxiq-105" value="id" style="text;strokeColor=none;fillColor=none;align=left;verticalAlign=middle;spacingLeft=4;spacingRight=4;overflow=hidden;points=[[0,0.5],[1,0.5]];portConstraint=eastwest;rotatable=0;whiteSpace=wrap;html=1;" vertex="1" parent="vdO3cK1JsAac6ZCJuxiq-102">
          <mxGeometry y="30" width="180" height="30" as="geometry" />
        </mxCell>
        <mxCell id="vdO3cK1JsAac6ZCJuxiq-114" value="customer_id" style="text;strokeColor=none;fillColor=none;align=left;verticalAlign=middle;spacingLeft=4;spacingRight=4;overflow=hidden;points=[[0,0.5],[1,0.5]];portConstraint=eastwest;rotatable=0;whiteSpace=wrap;html=1;" vertex="1" parent="vdO3cK1JsAac6ZCJuxiq-102">
          <mxGeometry y="60" width="180" height="30" as="geometry" />
        </mxCell>
        <mxCell id="vdO3cK1JsAac6ZCJuxiq-112" value="professional_id" style="text;strokeColor=none;fillColor=none;align=left;verticalAlign=middle;spacingLeft=4;spacingRight=4;overflow=hidden;points=[[0,0.5],[1,0.5]];portConstraint=eastwest;rotatable=0;whiteSpace=wrap;html=1;" vertex="1" parent="vdO3cK1JsAac6ZCJuxiq-102">
          <mxGeometry y="90" width="180" height="30" as="geometry" />
        </mxCell>
        <mxCell id="vdO3cK1JsAac6ZCJuxiq-119" value="Exercise" style="swimlane;fontStyle=0;childLayout=stackLayout;horizontal=1;startSize=30;horizontalStack=0;resizeParent=1;resizeParentMax=0;resizeLast=0;collapsible=1;marginBottom=0;whiteSpace=wrap;html=1;" vertex="1" parent="1">
          <mxGeometry x="-380" y="600" width="141" height="90" as="geometry" />
        </mxCell>
        <mxCell id="vdO3cK1JsAac6ZCJuxiq-120" value="id" style="text;strokeColor=none;fillColor=none;align=left;verticalAlign=middle;spacingLeft=4;spacingRight=4;overflow=hidden;points=[[0,0.5],[1,0.5]];portConstraint=eastwest;rotatable=0;whiteSpace=wrap;html=1;" vertex="1" parent="vdO3cK1JsAac6ZCJuxiq-119">
          <mxGeometry y="30" width="141" height="30" as="geometry" />
        </mxCell>
        <mxCell id="vdO3cK1JsAac6ZCJuxiq-129" value="title" style="text;strokeColor=none;fillColor=none;align=left;verticalAlign=middle;spacingLeft=4;spacingRight=4;overflow=hidden;points=[[0,0.5],[1,0.5]];portConstraint=eastwest;rotatable=0;whiteSpace=wrap;html=1;" vertex="1" parent="vdO3cK1JsAac6ZCJuxiq-119">
          <mxGeometry y="60" width="141" height="30" as="geometry" />
        </mxCell>
        <mxCell id="vdO3cK1JsAac6ZCJuxiq-148" style="edgeStyle=orthogonalEdgeStyle;rounded=0;orthogonalLoop=1;jettySize=auto;html=1;startArrow=classic;startFill=1;" edge="1" parent="1" source="vdO3cK1JsAac6ZCJuxiq-131" target="vdO3cK1JsAac6ZCJuxiq-119">
          <mxGeometry relative="1" as="geometry" />
        </mxCell>
        <mxCell id="vdO3cK1JsAac6ZCJuxiq-150" value="exercice_id:id" style="edgeLabel;html=1;align=center;verticalAlign=middle;resizable=0;points=[];" vertex="1" connectable="0" parent="vdO3cK1JsAac6ZCJuxiq-148">
          <mxGeometry x="-0.2241" y="1" relative="1" as="geometry">
            <mxPoint x="1" as="offset" />
          </mxGeometry>
        </mxCell>
        <mxCell id="vdO3cK1JsAac6ZCJuxiq-149" style="edgeStyle=orthogonalEdgeStyle;rounded=0;orthogonalLoop=1;jettySize=auto;html=1;startArrow=classic;startFill=1;" edge="1" parent="1" source="vdO3cK1JsAac6ZCJuxiq-131" target="vdO3cK1JsAac6ZCJuxiq-137">
          <mxGeometry relative="1" as="geometry" />
        </mxCell>
        <mxCell id="vdO3cK1JsAac6ZCJuxiq-151" value="level_id:id" style="edgeLabel;html=1;align=center;verticalAlign=middle;resizable=0;points=[];" vertex="1" connectable="0" parent="vdO3cK1JsAac6ZCJuxiq-149">
          <mxGeometry x="-0.2015" y="-2" relative="1" as="geometry">
            <mxPoint x="1" as="offset" />
          </mxGeometry>
        </mxCell>
        <mxCell id="vdO3cK1JsAac6ZCJuxiq-131" value="ExerciceLevelRelation" style="swimlane;fontStyle=0;childLayout=stackLayout;horizontal=1;startSize=30;horizontalStack=0;resizeParent=1;resizeParentMax=0;resizeLast=0;collapsible=1;marginBottom=0;whiteSpace=wrap;html=1;" vertex="1" parent="1">
          <mxGeometry x="-220" y="950" width="141" height="120" as="geometry" />
        </mxCell>
        <mxCell id="vdO3cK1JsAac6ZCJuxiq-132" value="id" style="text;strokeColor=none;fillColor=none;align=left;verticalAlign=middle;spacingLeft=4;spacingRight=4;overflow=hidden;points=[[0,0.5],[1,0.5]];portConstraint=eastwest;rotatable=0;whiteSpace=wrap;html=1;" vertex="1" parent="vdO3cK1JsAac6ZCJuxiq-131">
          <mxGeometry y="30" width="141" height="30" as="geometry" />
        </mxCell>
        <mxCell id="vdO3cK1JsAac6ZCJuxiq-133" value="exercice_id" style="text;strokeColor=none;fillColor=none;align=left;verticalAlign=middle;spacingLeft=4;spacingRight=4;overflow=hidden;points=[[0,0.5],[1,0.5]];portConstraint=eastwest;rotatable=0;whiteSpace=wrap;html=1;" vertex="1" parent="vdO3cK1JsAac6ZCJuxiq-131">
          <mxGeometry y="60" width="141" height="30" as="geometry" />
        </mxCell>
        <mxCell id="vdO3cK1JsAac6ZCJuxiq-134" value="level_id" style="text;strokeColor=none;fillColor=none;align=left;verticalAlign=middle;spacingLeft=4;spacingRight=4;overflow=hidden;points=[[0,0.5],[1,0.5]];portConstraint=eastwest;rotatable=0;whiteSpace=wrap;html=1;" vertex="1" parent="vdO3cK1JsAac6ZCJuxiq-131">
          <mxGeometry y="90" width="141" height="30" as="geometry" />
        </mxCell>
        <mxCell id="vdO3cK1JsAac6ZCJuxiq-137" value="Level" style="swimlane;fontStyle=0;childLayout=stackLayout;horizontal=1;startSize=30;horizontalStack=0;resizeParent=1;resizeParentMax=0;resizeLast=0;collapsible=1;marginBottom=0;whiteSpace=wrap;html=1;" vertex="1" parent="1">
          <mxGeometry x="-110" y="690" width="141" height="80" as="geometry" />
        </mxCell>
        <mxCell id="vdO3cK1JsAac6ZCJuxiq-138" value="id" style="text;strokeColor=none;fillColor=none;align=left;verticalAlign=middle;spacingLeft=4;spacingRight=4;overflow=hidden;points=[[0,0.5],[1,0.5]];portConstraint=eastwest;rotatable=0;whiteSpace=wrap;html=1;" vertex="1" parent="vdO3cK1JsAac6ZCJuxiq-137">
          <mxGeometry y="30" width="141" height="20" as="geometry" />
        </mxCell>
        <mxCell id="vdO3cK1JsAac6ZCJuxiq-139" value="label_level" style="text;strokeColor=none;fillColor=none;align=left;verticalAlign=middle;spacingLeft=4;spacingRight=4;overflow=hidden;points=[[0,0.5],[1,0.5]];portConstraint=eastwest;rotatable=0;whiteSpace=wrap;html=1;" vertex="1" parent="vdO3cK1JsAac6ZCJuxiq-137">
          <mxGeometry y="50" width="141" height="30" as="geometry" />
        </mxCell>
        <mxCell id="vdO3cK1JsAac6ZCJuxiq-153" style="edgeStyle=orthogonalEdgeStyle;rounded=0;orthogonalLoop=1;jettySize=auto;html=1;" edge="1" parent="1" source="vdO3cK1JsAac6ZCJuxiq-142" target="vdO3cK1JsAac6ZCJuxiq-119">
          <mxGeometry relative="1" as="geometry" />
        </mxCell>
        <mxCell id="vdO3cK1JsAac6ZCJuxiq-154" style="edgeStyle=orthogonalEdgeStyle;rounded=0;orthogonalLoop=1;jettySize=auto;html=1;entryX=0.5;entryY=0;entryDx=0;entryDy=0;" edge="1" parent="1" source="vdO3cK1JsAac6ZCJuxiq-142" target="vdO3cK1JsAac6ZCJuxiq-137">
          <mxGeometry relative="1" as="geometry" />
        </mxCell>
        <mxCell id="vdO3cK1JsAac6ZCJuxiq-142" value="ExerciseDdetail" style="swimlane;fontStyle=0;childLayout=stackLayout;horizontal=1;startSize=30;horizontalStack=0;resizeParent=1;resizeParentMax=0;resizeLast=0;collapsible=1;marginBottom=0;whiteSpace=wrap;html=1;" vertex="1" parent="1">
          <mxGeometry x="-210" y="200" width="141" height="180" as="geometry" />
        </mxCell>
        <mxCell id="vdO3cK1JsAac6ZCJuxiq-143" value="id" style="text;strokeColor=none;fillColor=none;align=left;verticalAlign=middle;spacingLeft=4;spacingRight=4;overflow=hidden;points=[[0,0.5],[1,0.5]];portConstraint=eastwest;rotatable=0;whiteSpace=wrap;html=1;" vertex="1" parent="vdO3cK1JsAac6ZCJuxiq-142">
          <mxGeometry y="30" width="141" height="30" as="geometry" />
        </mxCell>
        <mxCell id="vdO3cK1JsAac6ZCJuxiq-144" value="exercice_id" style="text;strokeColor=none;fillColor=none;align=left;verticalAlign=middle;spacingLeft=4;spacingRight=4;overflow=hidden;points=[[0,0.5],[1,0.5]];portConstraint=eastwest;rotatable=0;whiteSpace=wrap;html=1;" vertex="1" parent="vdO3cK1JsAac6ZCJuxiq-142">
          <mxGeometry y="60" width="141" height="30" as="geometry" />
        </mxCell>
        <mxCell id="vdO3cK1JsAac6ZCJuxiq-145" value="niveau_id" style="text;strokeColor=none;fillColor=none;align=left;verticalAlign=middle;spacingLeft=4;spacingRight=4;overflow=hidden;points=[[0,0.5],[1,0.5]];portConstraint=eastwest;rotatable=0;whiteSpace=wrap;html=1;" vertex="1" parent="vdO3cK1JsAac6ZCJuxiq-142">
          <mxGeometry y="90" width="141" height="30" as="geometry" />
        </mxCell>
        <mxCell id="vdO3cK1JsAac6ZCJuxiq-146" value="link_video" style="text;strokeColor=none;fillColor=none;align=left;verticalAlign=middle;spacingLeft=4;spacingRight=4;overflow=hidden;points=[[0,0.5],[1,0.5]];portConstraint=eastwest;rotatable=0;whiteSpace=wrap;html=1;" vertex="1" parent="vdO3cK1JsAac6ZCJuxiq-142">
          <mxGeometry y="120" width="141" height="30" as="geometry" />
        </mxCell>
        <mxCell id="vdO3cK1JsAac6ZCJuxiq-147" value="description" style="text;strokeColor=none;fillColor=none;align=left;verticalAlign=middle;spacingLeft=4;spacingRight=4;overflow=hidden;points=[[0,0.5],[1,0.5]];portConstraint=eastwest;rotatable=0;whiteSpace=wrap;html=1;" vertex="1" parent="vdO3cK1JsAac6ZCJuxiq-142">
          <mxGeometry y="150" width="141" height="30" as="geometry" />
        </mxCell>
        <mxCell id="vdO3cK1JsAac6ZCJuxiq-160" style="edgeStyle=orthogonalEdgeStyle;rounded=0;orthogonalLoop=1;jettySize=auto;html=1;" edge="1" parent="1" source="vdO3cK1JsAac6ZCJuxiq-155" target="vdO3cK1JsAac6ZCJuxiq-16">
          <mxGeometry relative="1" as="geometry">
            <Array as="points">
              <mxPoint x="331" y="790" />
              <mxPoint x="331" y="530" />
            </Array>
          </mxGeometry>
        </mxCell>
        <mxCell id="vdO3cK1JsAac6ZCJuxiq-161" style="edgeStyle=orthogonalEdgeStyle;rounded=0;orthogonalLoop=1;jettySize=auto;html=1;" edge="1" parent="1" source="vdO3cK1JsAac6ZCJuxiq-155" target="vdO3cK1JsAac6ZCJuxiq-137">
          <mxGeometry relative="1" as="geometry" />
        </mxCell>
        <mxCell id="vdO3cK1JsAac6ZCJuxiq-155" value="CustomerLevelRelation" style="swimlane;fontStyle=0;childLayout=stackLayout;horizontal=1;startSize=30;horizontalStack=0;resizeParent=1;resizeParentMax=0;resizeLast=0;collapsible=1;marginBottom=0;whiteSpace=wrap;html=1;" vertex="1" parent="1">
          <mxGeometry x="150" y="730" width="141" height="120" as="geometry" />
        </mxCell>
        <mxCell id="vdO3cK1JsAac6ZCJuxiq-156" value="id" style="text;strokeColor=none;fillColor=none;align=left;verticalAlign=middle;spacingLeft=4;spacingRight=4;overflow=hidden;points=[[0,0.5],[1,0.5]];portConstraint=eastwest;rotatable=0;whiteSpace=wrap;html=1;" vertex="1" parent="vdO3cK1JsAac6ZCJuxiq-155">
          <mxGeometry y="30" width="141" height="30" as="geometry" />
        </mxCell>
        <mxCell id="vdO3cK1JsAac6ZCJuxiq-157" value="customer_id" style="text;strokeColor=none;fillColor=none;align=left;verticalAlign=middle;spacingLeft=4;spacingRight=4;overflow=hidden;points=[[0,0.5],[1,0.5]];portConstraint=eastwest;rotatable=0;whiteSpace=wrap;html=1;" vertex="1" parent="vdO3cK1JsAac6ZCJuxiq-155">
          <mxGeometry y="60" width="141" height="30" as="geometry" />
        </mxCell>
        <mxCell id="vdO3cK1JsAac6ZCJuxiq-158" value="level_id" style="text;strokeColor=none;fillColor=none;align=left;verticalAlign=middle;spacingLeft=4;spacingRight=4;overflow=hidden;points=[[0,0.5],[1,0.5]];portConstraint=eastwest;rotatable=0;whiteSpace=wrap;html=1;" vertex="1" parent="vdO3cK1JsAac6ZCJuxiq-155">
          <mxGeometry y="90" width="141" height="30" as="geometry" />
        </mxCell>
        <mxCell id="vdO3cK1JsAac6ZCJuxiq-170" style="edgeStyle=orthogonalEdgeStyle;rounded=0;orthogonalLoop=1;jettySize=auto;html=1;" edge="1" parent="1" source="vdO3cK1JsAac6ZCJuxiq-162" target="vdO3cK1JsAac6ZCJuxiq-119">
          <mxGeometry relative="1" as="geometry" />
        </mxCell>
        <mxCell id="vdO3cK1JsAac6ZCJuxiq-171" style="edgeStyle=orthogonalEdgeStyle;rounded=0;orthogonalLoop=1;jettySize=auto;html=1;" edge="1" parent="1" source="vdO3cK1JsAac6ZCJuxiq-162" target="vdO3cK1JsAac6ZCJuxiq-137">
          <mxGeometry relative="1" as="geometry">
            <Array as="points">
              <mxPoint y="600" />
            </Array>
          </mxGeometry>
        </mxCell>
        <mxCell id="vdO3cK1JsAac6ZCJuxiq-162" value="CustomerExerciceAffiliation" style="swimlane;fontStyle=0;childLayout=stackLayout;horizontal=1;startSize=30;horizontalStack=0;resizeParent=1;resizeParentMax=0;resizeLast=0;collapsible=1;marginBottom=0;whiteSpace=wrap;html=1;" vertex="1" parent="1">
          <mxGeometry x="90" y="500" width="190" height="150" as="geometry" />
        </mxCell>
        <mxCell id="vdO3cK1JsAac6ZCJuxiq-163" value="id" style="text;strokeColor=none;fillColor=none;align=left;verticalAlign=middle;spacingLeft=4;spacingRight=4;overflow=hidden;points=[[0,0.5],[1,0.5]];portConstraint=eastwest;rotatable=0;whiteSpace=wrap;html=1;" vertex="1" parent="vdO3cK1JsAac6ZCJuxiq-162">
          <mxGeometry y="30" width="190" height="30" as="geometry" />
        </mxCell>
        <mxCell id="vdO3cK1JsAac6ZCJuxiq-164" value="customer_id" style="text;strokeColor=none;fillColor=none;align=left;verticalAlign=middle;spacingLeft=4;spacingRight=4;overflow=hidden;points=[[0,0.5],[1,0.5]];portConstraint=eastwest;rotatable=0;whiteSpace=wrap;html=1;" vertex="1" parent="vdO3cK1JsAac6ZCJuxiq-162">
          <mxGeometry y="60" width="190" height="30" as="geometry" />
        </mxCell>
        <mxCell id="vdO3cK1JsAac6ZCJuxiq-168" value="exercice_id" style="text;strokeColor=none;fillColor=none;align=left;verticalAlign=middle;spacingLeft=4;spacingRight=4;overflow=hidden;points=[[0,0.5],[1,0.5]];portConstraint=eastwest;rotatable=0;whiteSpace=wrap;html=1;" vertex="1" parent="vdO3cK1JsAac6ZCJuxiq-162">
          <mxGeometry y="90" width="190" height="30" as="geometry" />
        </mxCell>
        <mxCell id="vdO3cK1JsAac6ZCJuxiq-165" value="level_id" style="text;strokeColor=none;fillColor=none;align=left;verticalAlign=middle;spacingLeft=4;spacingRight=4;overflow=hidden;points=[[0,0.5],[1,0.5]];portConstraint=eastwest;rotatable=0;whiteSpace=wrap;html=1;" vertex="1" parent="vdO3cK1JsAac6ZCJuxiq-162">
          <mxGeometry y="120" width="190" height="30" as="geometry" />
        </mxCell>
        <mxCell id="vdO3cK1JsAac6ZCJuxiq-169" style="edgeStyle=orthogonalEdgeStyle;rounded=0;orthogonalLoop=1;jettySize=auto;html=1;" edge="1" parent="1" source="vdO3cK1JsAac6ZCJuxiq-168" target="vdO3cK1JsAac6ZCJuxiq-16">
          <mxGeometry relative="1" as="geometry" />
        </mxCell>
        <mxCell id="vdO3cK1JsAac6ZCJuxiq-172" value="Customer_choice_Sport" style="swimlane;fontStyle=0;childLayout=stackLayout;horizontal=1;startSize=30;horizontalStack=0;resizeParent=1;resizeParentMax=0;resizeLast=0;collapsible=1;marginBottom=0;whiteSpace=wrap;html=1;" vertex="1" parent="1">
          <mxGeometry x="300" y="880" width="141" height="120" as="geometry" />
        </mxCell>
        <mxCell id="vdO3cK1JsAac6ZCJuxiq-173" value="id" style="text;strokeColor=none;fillColor=none;align=left;verticalAlign=middle;spacingLeft=4;spacingRight=4;overflow=hidden;points=[[0,0.5],[1,0.5]];portConstraint=eastwest;rotatable=0;whiteSpace=wrap;html=1;" vertex="1" parent="vdO3cK1JsAac6ZCJuxiq-172">
          <mxGeometry y="30" width="141" height="30" as="geometry" />
        </mxCell>
        <mxCell id="vdO3cK1JsAac6ZCJuxiq-174" value="customer_id" style="text;strokeColor=none;fillColor=none;align=left;verticalAlign=middle;spacingLeft=4;spacingRight=4;overflow=hidden;points=[[0,0.5],[1,0.5]];portConstraint=eastwest;rotatable=0;whiteSpace=wrap;html=1;" vertex="1" parent="vdO3cK1JsAac6ZCJuxiq-172">
          <mxGeometry y="60" width="141" height="30" as="geometry" />
        </mxCell>
        <mxCell id="vdO3cK1JsAac6ZCJuxiq-175" value="enum choix exo ou prog" style="text;strokeColor=none;fillColor=none;align=left;verticalAlign=middle;spacingLeft=4;spacingRight=4;overflow=hidden;points=[[0,0.5],[1,0.5]];portConstraint=eastwest;rotatable=0;whiteSpace=wrap;html=1;" vertex="1" parent="vdO3cK1JsAac6ZCJuxiq-172">
          <mxGeometry y="90" width="141" height="30" as="geometry" />
        </mxCell>
        <mxCell id="vdO3cK1JsAac6ZCJuxiq-177" value="CustomerProgram" style="swimlane;fontStyle=0;childLayout=stackLayout;horizontal=1;startSize=30;horizontalStack=0;resizeParent=1;resizeParentMax=0;resizeLast=0;collapsible=1;marginBottom=0;whiteSpace=wrap;html=1;" vertex="1" parent="1">
          <mxGeometry x="90" y="900" width="141" height="120" as="geometry" />
        </mxCell>
        <mxCell id="vdO3cK1JsAac6ZCJuxiq-178" value="id" style="text;strokeColor=none;fillColor=none;align=left;verticalAlign=middle;spacingLeft=4;spacingRight=4;overflow=hidden;points=[[0,0.5],[1,0.5]];portConstraint=eastwest;rotatable=0;whiteSpace=wrap;html=1;" vertex="1" parent="vdO3cK1JsAac6ZCJuxiq-177">
          <mxGeometry y="30" width="141" height="30" as="geometry" />
        </mxCell>
        <mxCell id="vdO3cK1JsAac6ZCJuxiq-179" value="customer_id" style="text;strokeColor=none;fillColor=none;align=left;verticalAlign=middle;spacingLeft=4;spacingRight=4;overflow=hidden;points=[[0,0.5],[1,0.5]];portConstraint=eastwest;rotatable=0;whiteSpace=wrap;html=1;" vertex="1" parent="vdO3cK1JsAac6ZCJuxiq-177">
          <mxGeometry y="60" width="141" height="30" as="geometry" />
        </mxCell>
        <mxCell id="vdO3cK1JsAac6ZCJuxiq-180" value="program_id" style="text;strokeColor=none;fillColor=none;align=left;verticalAlign=middle;spacingLeft=4;spacingRight=4;overflow=hidden;points=[[0,0.5],[1,0.5]];portConstraint=eastwest;rotatable=0;whiteSpace=wrap;html=1;" vertex="1" parent="vdO3cK1JsAac6ZCJuxiq-177">
          <mxGeometry y="90" width="141" height="30" as="geometry" />
        </mxCell>
      </root>
    </mxGraphModel>
  </diagram>
</mxfile>
